<svg width="710" height="710" viewBox="0 0 710 710" fill="none" xmlns="http://www.w3.org/2000/svg">
<path d="M354.667 0.666626C159.04 0.666626 0 159.707 0 355.333C0 550.96 159.04 710 354.667 710C550.293 710 709.333 550.96 709.333 355.333C709.333 159.707 550.293 0.666626 354.667 0.666626ZM354.667 155.973C403.197 155.973 442.771 195.547 442.771 244.077C442.771 292.608 403.197 332.181 354.667 332.181C306.136 332.181 266.563 292.608 266.563 244.077C266.563 195.547 306.136 155.973 354.667 155.973ZM499.52 516.613C499.52 524.827 492.801 532.296 483.837 532.296L225.491 532.291C217.277 532.291 209.808 525.572 209.808 516.608V506.155C209.808 426.259 274.767 361.302 354.661 361.302C434.556 361.302 499.515 426.26 499.515 506.155L499.52 516.613Z" fill="black"/>
</svg>
